<mxfile host="app.diagrams.net" modified="2021-03-31T03:45:36.672Z" agent="5.0 (Windows NT 10.0; Win64; x64) AppleWebKit/537.36 (KHTML, like Gecko) Chrome/89.0.4389.90 Safari/537.36" etag="W0Msyz1R-rnE7f48dmLM" version="14.5.3" type="github">
  <diagram id="prtHgNgQTEPvFCAcTncT" name="Page-1">
    <mxGraphModel dx="1022" dy="738" grid="1" gridSize="10" guides="1" tooltips="1" connect="1" arrows="1" fold="1" page="1" pageScale="1" pageWidth="827" pageHeight="1169" math="0" shadow="0">
      <root>
        <mxCell id="0" />
        <mxCell id="1" parent="0" />
        <mxCell id="0EdgKEL4-VeEeaSCLXQi-18" value="" style="edgeStyle=orthogonalEdgeStyle;rounded=0;orthogonalLoop=1;jettySize=auto;html=1;" edge="1" parent="1" source="0EdgKEL4-VeEeaSCLXQi-5" target="0EdgKEL4-VeEeaSCLXQi-17">
          <mxGeometry relative="1" as="geometry" />
        </mxCell>
        <mxCell id="0EdgKEL4-VeEeaSCLXQi-5" value="Star" style="ellipse;whiteSpace=wrap;html=1;aspect=fixed;" vertex="1" parent="1">
          <mxGeometry x="360" width="40" height="40" as="geometry" />
        </mxCell>
        <mxCell id="0EdgKEL4-VeEeaSCLXQi-20" value="" style="edgeStyle=orthogonalEdgeStyle;rounded=0;orthogonalLoop=1;jettySize=auto;html=1;" edge="1" parent="1" source="0EdgKEL4-VeEeaSCLXQi-17" target="0EdgKEL4-VeEeaSCLXQi-19">
          <mxGeometry relative="1" as="geometry" />
        </mxCell>
        <mxCell id="0EdgKEL4-VeEeaSCLXQi-17" value="Chọn người dùng hoặc &lt;br&gt;nhóm cần chat" style="shape=parallelogram;perimeter=parallelogramPerimeter;whiteSpace=wrap;html=1;fixedSize=1;" vertex="1" parent="1">
          <mxGeometry x="300" y="70" width="160" height="60" as="geometry" />
        </mxCell>
        <mxCell id="0EdgKEL4-VeEeaSCLXQi-19" value="Gửi ID người dùng hoặc nhóm đã chọn đến Server" style="whiteSpace=wrap;html=1;" vertex="1" parent="1">
          <mxGeometry x="320" y="160" width="120" height="60" as="geometry" />
        </mxCell>
      </root>
    </mxGraphModel>
  </diagram>
</mxfile>
